<svg xmlns="http://www.w3.org/2000/svg" width="48.438" height="47.227" viewBox="0 0 48.438 47.227">
  <path id="Github" d="M16.2,38.809c0,.2-.225.352-.508.352-.322.029-.547-.127-.547-.352,0-.2.225-.352.508-.352C15.947,38.428,16.2,38.584,16.2,38.809Zm-3.037-.44c-.068.2.127.42.42.479a.458.458,0,0,0,.606-.2c.059-.2-.127-.42-.42-.508A.5.5,0,0,0,13.164,38.369ZM17.48,38.2c-.283.068-.478.254-.449.479.029.2.283.322.576.254s.478-.254.449-.449S17.764,38.174,17.48,38.2ZM23.906.781A23.417,23.417,0,0,0,0,24.609,24.483,24.483,0,0,0,16.553,47.969c1.25.225,1.69-.547,1.69-1.182,0-.606-.029-3.945-.029-6,0,0-6.836,1.465-8.271-2.91,0,0-1.113-2.842-2.715-3.574,0,0-2.236-1.533.156-1.5a5.155,5.155,0,0,1,3.769,2.52c2.139,3.77,5.723,2.686,7.119,2.041a5.428,5.428,0,0,1,1.563-3.291c-5.459-.605-10.967-1.4-10.967-10.791a7.4,7.4,0,0,1,2.3-5.752,9.227,9.227,0,0,1,.254-6.631c2.041-.635,6.738,2.637,6.738,2.637a23.07,23.07,0,0,1,12.266,0s4.7-3.281,6.738-2.637a9.222,9.222,0,0,1,.254,6.631c1.563,1.728,2.519,3.076,2.519,5.752,0,9.424-5.752,10.176-11.211,10.791a5.775,5.775,0,0,1,1.66,4.531c0,3.291-.029,7.363-.029,8.164,0,.635.449,1.406,1.69,1.182a24.258,24.258,0,0,0,16.387-23.34C48.438,11.064,37.451.781,23.906.781ZM9.492,34.463c-.127.1-.1.322.068.508.156.156.381.225.508.1.127-.1.1-.322-.068-.508C9.844,34.4,9.619,34.336,9.492,34.463Zm-1.055-.791c-.068.127.029.283.225.381a.291.291,0,0,0,.42-.068c.068-.127-.029-.283-.225-.381C8.662,33.545,8.506,33.574,8.438,33.672ZM11.6,37.148c-.156.127-.1.42.127.605.225.225.508.254.635.1.127-.127.068-.42-.127-.605C12.021,37.021,11.729,36.992,11.6,37.148Zm-1.113-1.436c-.156.1-.156.352,0,.576s.42.322.547.225a.446.446,0,0,0,0-.605C10.9,35.684,10.644,35.586,10.488,35.713Z" transform="translate(0 -0.781)" fill="#860157"/>
</svg>
