<svg xmlns="http://www.w3.org/2000/svg" width="43.75" height="43.75" viewBox="0 0 43.75 43.75">
  <path id="LinkedIn" d="M42.708,3.125H5.2A3.139,3.139,0,0,0,2.083,6.279V43.721A3.138,3.138,0,0,0,5.2,46.875h37.51a3.147,3.147,0,0,0,3.125-3.154V6.279A3.147,3.147,0,0,0,42.708,3.125Zm-27.4,37.5H8.822V19.746h6.494V40.625Zm-3.242-23.73a3.76,3.76,0,1,1,3.76-3.76A3.761,3.761,0,0,1,12.064,16.895Zm27.549,23.73H33.128V30.469c0-2.422-.049-5.537-3.369-5.537-3.379,0-3.9,2.637-3.9,5.361V40.625H19.378V19.746H25.6V22.6h.088a6.83,6.83,0,0,1,6.142-3.369c6.563,0,7.783,4.326,7.783,9.951Z" transform="translate(-2.083 -3.125)" fill="#860157"/>
</svg>
